<svg width="13" height="13" viewBox="0 0 13 13" fill="none" xmlns="http://www.w3.org/2000/svg">
<circle cx="6.50293" cy="6.50293" r="6.50293" fill="#7F2EEF"/>
<path fill-rule="evenodd" clip-rule="evenodd" d="M9.89135 4.66196C9.9562 4.53767 9.97227 4.392 9.93617 4.25561C9.90007 4.11922 9.81462 4.00274 9.6978 3.93068C9.58097 3.85862 9.44188 3.83659 9.30979 3.86924C9.1777 3.90188 9.0629 3.98665 8.98956 4.10571L5.44574 7.7351L3.79003 6.08274C3.74091 6.03018 3.68213 5.98846 3.61721 5.96008C3.55229 5.93171 3.48254 5.91725 3.41214 5.91757C3.34174 5.91789 3.27212 5.93298 3.20744 5.96195C3.14276 5.99091 3.08433 6.03316 3.03566 6.08617C2.98698 6.13918 2.94904 6.20186 2.92411 6.27048C2.89918 6.3391 2.88777 6.41224 2.89055 6.48556C2.89333 6.55887 2.91025 6.63085 2.9403 6.69721C2.97035 6.76356 3.01291 6.82293 3.06545 6.87176L5.19828 9.00169C5.25536 9.05858 5.32404 9.10129 5.39918 9.12663C5.47432 9.15197 5.55399 9.1593 5.63223 9.14805C5.71047 9.13681 5.78526 9.10729 5.85101 9.0617C5.91677 9.01611 5.9718 8.95562 6.01198 8.88476L9.89135 4.66196Z" fill="white"/>
</svg>
