<svg width="266" height="169" viewBox="0 0 266 169" fill="none" xmlns="http://www.w3.org/2000/svg">
<rect width="266" height="169" rx="22" fill="#16181E"/>
<path d="M37.822 23.76V33H36.436V27.652L36.548 25.104H36.534L33.72 33H32.474L29.66 25.104H29.646L29.758 27.652V33H28.372V23.76H30.598L32.46 29.108L33.104 31.306H33.132L33.79 29.108L35.638 23.76H37.822ZM44.335 28.506C44.335 28.0393 44.2043 27.68 43.943 27.428C43.691 27.1667 43.341 27.036 42.893 27.036C42.473 27.036 42.1136 27.134 41.815 27.33C41.5163 27.526 41.297 27.8433 41.157 28.282L39.897 27.75C40.0743 27.1807 40.4196 26.7233 40.933 26.378C41.4556 26.0327 42.1276 25.86 42.949 25.86C43.509 25.86 44.0036 25.9533 44.433 26.14C44.8623 26.3173 45.1983 26.588 45.441 26.952C45.693 27.316 45.819 27.7827 45.819 28.352V31.474C45.819 31.8193 45.9916 31.992 46.337 31.992C46.505 31.992 46.6683 31.9687 46.827 31.922L46.743 32.958C46.5283 33.0607 46.2576 33.112 45.931 33.112C45.6323 33.112 45.3616 33.0607 45.119 32.958C44.8856 32.846 44.699 32.6827 44.559 32.468C44.4283 32.244 44.363 31.9687 44.363 31.642V31.544L44.671 31.53C44.587 31.894 44.4143 32.1973 44.153 32.44C43.8916 32.6733 43.5883 32.8507 43.243 32.972C42.8976 33.084 42.5476 33.14 42.193 33.14C41.7543 33.14 41.3576 33.07 41.003 32.93C40.6576 32.79 40.3823 32.58 40.177 32.3C39.981 32.0107 39.883 31.656 39.883 31.236C39.883 30.7133 40.051 30.284 40.387 29.948C40.7323 29.612 41.2176 29.3833 41.843 29.262L44.559 28.73L44.545 29.78L42.571 30.186C42.179 30.2607 41.885 30.368 41.689 30.508C41.493 30.648 41.395 30.8533 41.395 31.124C41.395 31.3853 41.493 31.5953 41.689 31.754C41.8943 31.9033 42.165 31.978 42.501 31.978C42.7343 31.978 42.9583 31.95 43.173 31.894C43.397 31.838 43.5976 31.7493 43.775 31.628C43.9523 31.4973 44.0876 31.334 44.181 31.138C44.2836 30.9327 44.335 30.69 44.335 30.41V28.506ZM50.9333 33.14C50.2333 33.14 49.594 33.0047 49.0153 32.734C48.4367 32.4633 47.9793 32.0807 47.6433 31.586L48.6793 30.69C48.8847 31.0727 49.1787 31.3807 49.5613 31.614C49.9533 31.838 50.42 31.95 50.9613 31.95C51.3907 31.95 51.7313 31.8753 51.9833 31.726C52.2353 31.5767 52.3613 31.3667 52.3613 31.096C52.3613 30.9187 52.3007 30.7647 52.1793 30.634C52.0673 30.494 51.848 30.3867 51.5213 30.312L50.0513 30.004C49.3047 29.8547 48.7727 29.6167 48.4553 29.29C48.138 28.954 47.9793 28.5293 47.9793 28.016C47.9793 27.6333 48.0913 27.2787 48.3153 26.952C48.5393 26.6253 48.866 26.364 49.2953 26.168C49.734 25.9627 50.2567 25.86 50.8633 25.86C51.5633 25.86 52.1607 25.986 52.6553 26.238C53.15 26.4807 53.528 26.8307 53.7893 27.288L52.7533 28.156C52.576 27.7827 52.3147 27.5073 51.9693 27.33C51.624 27.1433 51.2647 27.05 50.8913 27.05C50.5927 27.05 50.336 27.0873 50.1213 27.162C49.9067 27.2367 49.7433 27.3393 49.6313 27.47C49.5193 27.6007 49.4633 27.7547 49.4633 27.932C49.4633 28.1187 49.5333 28.282 49.6733 28.422C49.8133 28.562 50.0653 28.6693 50.4293 28.744L52.0253 29.08C52.6973 29.2107 53.1687 29.4347 53.4393 29.752C53.7193 30.06 53.8593 30.438 53.8593 30.886C53.8593 31.334 53.7427 31.7307 53.5093 32.076C53.276 32.412 52.94 32.6733 52.5013 32.86C52.0627 33.0467 51.54 33.14 50.9333 33.14ZM57.7275 23.942V30.9C57.7275 31.2453 57.8162 31.4973 57.9935 31.656C58.1802 31.8147 58.4275 31.894 58.7355 31.894C58.9875 31.894 59.2068 31.8567 59.3935 31.782C59.5802 31.698 59.7528 31.586 59.9115 31.446L60.2475 32.538C60.0328 32.7247 59.7668 32.874 59.4495 32.986C59.1415 33.0887 58.7962 33.14 58.4135 33.14C58.0122 33.14 57.6435 33.0747 57.3075 32.944C56.9715 32.8133 56.7102 32.6033 56.5235 32.314C56.3368 32.0153 56.2388 31.628 56.2295 31.152V24.362L57.7275 23.942ZM60.1355 26V27.176H54.8855V26H60.1355ZM64.6971 33.14C63.9971 33.14 63.3811 32.9953 62.8491 32.706C62.3171 32.4167 61.9017 32.0013 61.6031 31.46C61.3137 30.9093 61.1691 30.256 61.1691 29.5C61.1691 28.744 61.3137 28.0953 61.6031 27.554C61.9017 27.0033 62.3124 26.5833 62.8351 26.294C63.3577 26.0047 63.9504 25.86 64.6131 25.86C65.2944 25.86 65.8731 26 66.3491 26.28C66.8251 26.56 67.1891 26.9427 67.4411 27.428C67.6931 27.9133 67.8191 28.464 67.8191 29.08C67.8191 29.248 67.8144 29.4067 67.8051 29.556C67.7957 29.7053 67.7817 29.836 67.7631 29.948H62.1351V28.8H67.1051L66.3631 29.024C66.3631 28.3893 66.2044 27.904 65.8871 27.568C65.5697 27.2227 65.1357 27.05 64.5851 27.05C64.1837 27.05 63.8337 27.1433 63.5351 27.33C63.2364 27.5167 63.0077 27.7967 62.8491 28.17C62.6904 28.534 62.6111 28.982 62.6111 29.514C62.6111 30.0367 62.6951 30.48 62.8631 30.844C63.0311 31.208 63.2691 31.4833 63.5771 31.67C63.8851 31.8567 64.2491 31.95 64.6691 31.95C65.1357 31.95 65.5137 31.8613 65.8031 31.684C66.0924 31.5067 66.3211 31.2593 66.4891 30.942L67.6791 31.502C67.5111 31.838 67.2824 32.132 66.9931 32.384C66.7131 32.6267 66.3771 32.8133 65.9851 32.944C65.5931 33.0747 65.1637 33.14 64.6971 33.14ZM69.7108 33V26H70.9848L71.1248 27.26C71.3115 26.8027 71.5868 26.4573 71.9508 26.224C72.3242 25.9813 72.7815 25.86 73.3228 25.86C73.4628 25.86 73.6028 25.874 73.7428 25.902C73.8828 25.9207 73.9995 25.9533 74.0928 26L73.8828 27.316C73.7802 27.2787 73.6635 27.2507 73.5328 27.232C73.4115 27.204 73.2435 27.19 73.0288 27.19C72.7395 27.19 72.4548 27.2693 72.1748 27.428C71.8948 27.5773 71.6615 27.806 71.4748 28.114C71.2975 28.422 71.2088 28.814 71.2088 29.29V33H69.7108ZM87.6277 30.55C87.441 31.11 87.161 31.586 86.7877 31.978C86.4143 32.3607 85.9757 32.65 85.4717 32.846C84.9677 33.042 84.4123 33.14 83.8057 33.14C82.919 33.14 82.149 32.9487 81.4957 32.566C80.8423 32.1833 80.3383 31.6373 79.9837 30.928C79.629 30.2187 79.4517 29.3693 79.4517 28.38C79.4517 27.3907 79.629 26.5413 79.9837 25.832C80.3383 25.1227 80.8423 24.5767 81.4957 24.194C82.149 23.8113 82.9143 23.62 83.7917 23.62C84.3983 23.62 84.9443 23.704 85.4297 23.872C85.9243 24.04 86.3443 24.292 86.6897 24.628C87.035 24.964 87.301 25.384 87.4877 25.888L86.0737 26.518C85.887 25.9673 85.6163 25.566 85.2617 25.314C84.907 25.0527 84.445 24.922 83.8757 24.922C83.3063 24.922 82.807 25.0573 82.3777 25.328C81.9483 25.5987 81.6123 25.9907 81.3697 26.504C81.1363 27.0173 81.0197 27.6427 81.0197 28.38C81.0197 29.108 81.1317 29.7333 81.3557 30.256C81.5797 30.7693 81.9017 31.1613 82.3217 31.432C82.7417 31.7027 83.2457 31.838 83.8337 31.838C84.403 31.838 84.893 31.6933 85.3037 31.404C85.7237 31.1053 86.0223 30.662 86.1997 30.074L87.6277 30.55ZM93.376 28.506C93.376 28.0393 93.2453 27.68 92.984 27.428C92.732 27.1667 92.382 27.036 91.934 27.036C91.514 27.036 91.1546 27.134 90.856 27.33C90.5573 27.526 90.338 27.8433 90.198 28.282L88.938 27.75C89.1153 27.1807 89.4606 26.7233 89.974 26.378C90.4966 26.0327 91.1686 25.86 91.99 25.86C92.55 25.86 93.0446 25.9533 93.474 26.14C93.9033 26.3173 94.2393 26.588 94.482 26.952C94.734 27.316 94.86 27.7827 94.86 28.352V31.474C94.86 31.8193 95.0326 31.992 95.378 31.992C95.546 31.992 95.7093 31.9687 95.868 31.922L95.784 32.958C95.5693 33.0607 95.2986 33.112 94.972 33.112C94.6733 33.112 94.4026 33.0607 94.16 32.958C93.9266 32.846 93.74 32.6827 93.6 32.468C93.4693 32.244 93.404 31.9687 93.404 31.642V31.544L93.712 31.53C93.628 31.894 93.4553 32.1973 93.194 32.44C92.9326 32.6733 92.6293 32.8507 92.284 32.972C91.9386 33.084 91.5886 33.14 91.234 33.14C90.7953 33.14 90.3986 33.07 90.044 32.93C89.6986 32.79 89.4233 32.58 89.218 32.3C89.022 32.0107 88.924 31.656 88.924 31.236C88.924 30.7133 89.092 30.284 89.428 29.948C89.7733 29.612 90.2586 29.3833 90.884 29.262L93.6 28.73L93.586 29.78L91.612 30.186C91.22 30.2607 90.926 30.368 90.73 30.508C90.534 30.648 90.436 30.8533 90.436 31.124C90.436 31.3853 90.534 31.5953 90.73 31.754C90.9353 31.9033 91.206 31.978 91.542 31.978C91.7753 31.978 91.9993 31.95 92.214 31.894C92.438 31.838 92.6386 31.7493 92.816 31.628C92.9933 31.4973 93.1286 31.334 93.222 31.138C93.3246 30.9327 93.376 30.69 93.376 30.41V28.506ZM97.3143 33V26H98.5883L98.7283 27.26C98.915 26.8027 99.1903 26.4573 99.5543 26.224C99.9277 25.9813 100.385 25.86 100.926 25.86C101.066 25.86 101.206 25.874 101.346 25.902C101.486 25.9207 101.603 25.9533 101.696 26L101.486 27.316C101.384 27.2787 101.267 27.2507 101.136 27.232C101.015 27.204 100.847 27.19 100.632 27.19C100.343 27.19 100.058 27.2693 99.7783 27.428C99.4983 27.5773 99.265 27.806 99.0783 28.114C98.901 28.422 98.8123 28.814 98.8123 29.29V33H97.3143ZM105.621 33.14C105.043 33.14 104.515 32.9953 104.039 32.706C103.573 32.4167 103.204 32.0013 102.933 31.46C102.663 30.9187 102.527 30.27 102.527 29.514C102.527 28.73 102.672 28.0673 102.961 27.526C103.251 26.9847 103.638 26.574 104.123 26.294C104.609 26.0047 105.141 25.86 105.719 25.86C106.317 25.86 106.821 26.0233 107.231 26.35C107.642 26.6767 107.917 27.1013 108.057 27.624L107.889 27.778V22.85H109.387V33H108.057L107.945 31.096L108.141 31.11C108.076 31.53 107.922 31.894 107.679 32.202C107.437 32.5007 107.133 32.734 106.769 32.902C106.415 33.0607 106.032 33.14 105.621 33.14ZM105.943 31.936C106.345 31.936 106.69 31.8333 106.979 31.628C107.269 31.4227 107.493 31.1333 107.651 30.76C107.81 30.3867 107.889 29.9387 107.889 29.416C107.889 28.9307 107.81 28.5153 107.651 28.17C107.493 27.8153 107.269 27.5447 106.979 27.358C106.699 27.1713 106.373 27.078 105.999 27.078C105.374 27.078 104.889 27.2927 104.543 27.722C104.198 28.1513 104.025 28.744 104.025 29.5C104.025 30.256 104.193 30.8533 104.529 31.292C104.865 31.7213 105.337 31.936 105.943 31.936Z" fill="white"/>
<path d="M229.545 22.0322H221.226V36.9614H229.545V22.0322Z" fill="#FF5F00"/>
<path d="M221.754 29.4978C221.754 26.5964 223.101 23.8268 225.372 22.0332C221.252 18.7889 215.284 19.501 212.036 23.6422C208.787 27.7569 209.5 33.7181 213.647 36.9624C217.106 39.6792 221.939 39.6792 225.398 36.9624C223.101 35.1688 221.754 32.3992 221.754 29.4978Z" fill="#EB001B"/>
<path d="M240.768 29.4978C240.768 34.7468 236.516 38.9934 231.261 38.9934C229.122 38.9934 227.062 38.2812 225.398 36.9624C229.518 33.7181 230.231 27.7569 226.983 23.6158C226.508 23.0355 225.979 22.4816 225.398 22.0332C229.518 18.7889 235.513 19.501 238.735 23.6422C240.055 25.3039 240.768 27.3613 240.768 29.4978Z" fill="#F79E1B"/>
<path d="M239.87 35.38V35.0635H240.002V35.0107H239.686V35.0635H239.818V35.38H239.87ZM240.478 35.38V35.0107H240.372L240.267 35.2745L240.161 35.0107H240.055V35.38H240.134V35.0899L240.24 35.3273H240.319L240.425 35.0899V35.38H240.478Z" fill="#F79E1B"/>
<g opacity="0.05">
<path d="M159.527 36.1562H105.674V132.803H159.527V36.1562Z" fill="#FF5F00"/>
<path d="M109.091 84.4858C109.091 65.7028 117.81 47.7736 132.513 36.1623C105.843 15.1595 67.2061 19.7699 46.1781 46.5783C25.1501 73.216 29.766 111.806 56.6066 132.809C79.0023 150.397 110.288 150.397 132.684 132.809C117.81 121.198 109.091 103.269 109.091 84.4858Z" fill="#EB001B"/>
<path d="M232.184 84.4858C232.184 118.466 204.66 145.957 170.639 145.957C156.791 145.957 143.456 141.347 132.686 132.809C159.356 111.806 163.972 73.216 142.944 46.4076C139.866 42.651 136.447 39.0651 132.686 36.1623C159.356 15.1595 198.164 19.7699 219.021 46.5783C227.569 57.3358 232.184 70.6547 232.184 84.4858Z" fill="#F79E1B"/>
<path d="M226.372 122.562V120.513H227.226V120.172H225.175V120.513H226.03V122.562H226.372ZM230.304 122.562V120.172H229.62L228.936 121.879L228.252 120.172H227.568V122.562H228.081V120.684L228.765 122.221H229.278L229.962 120.684V122.562H230.304Z" fill="#F79E1B"/>
</g>
<path d="M31.816 92.404L33.08 93.748L34.2 95.316L33.368 95.924L32.216 94.372L31.336 92.756L31.576 92.58L31.816 92.404ZM31.336 92.404L31.576 92.58L31.816 92.756L30.936 94.372L29.784 95.924L28.952 95.316L30.072 93.748L31.336 92.404ZM28.152 90.932L30.008 91.508L31.672 92.292L31.576 92.58L31.48 92.868L29.672 92.516L27.848 91.908L28.152 90.932ZM32.104 88.82V90.756L31.88 92.58H31.576H31.272L31.048 90.756V88.82H32.104ZM35 90.932L35.304 91.908L33.48 92.516L31.672 92.868L31.576 92.58L31.48 92.292L33.144 91.508L35 90.932ZM40.9723 92.404L42.2363 93.748L43.3563 95.316L42.5243 95.924L41.3723 94.372L40.4923 92.756L40.7323 92.58L40.9723 92.404ZM40.4923 92.404L40.7323 92.58L40.9723 92.756L40.0923 94.372L38.9403 95.924L38.1083 95.316L39.2283 93.748L40.4923 92.404ZM37.3083 90.932L39.1643 91.508L40.8283 92.292L40.7323 92.58L40.6363 92.868L38.8283 92.516L37.0043 91.908L37.3083 90.932ZM41.2603 88.82V90.756L41.0363 92.58H40.7323H40.4283L40.2043 90.756V88.82H41.2603ZM44.1562 90.932L44.4603 91.908L42.6363 92.516L40.8283 92.868L40.7323 92.58L40.6363 92.292L42.3003 91.508L44.1562 90.932ZM50.1285 92.404L51.3925 93.748L52.5125 95.316L51.6805 95.924L50.5285 94.372L49.6485 92.756L49.8885 92.58L50.1285 92.404ZM49.6485 92.404L49.8885 92.58L50.1285 92.756L49.2485 94.372L48.0965 95.924L47.2645 95.316L48.3845 93.748L49.6485 92.404ZM46.4645 90.932L48.3205 91.508L49.9845 92.292L49.8885 92.58L49.7925 92.868L47.9845 92.516L46.1605 91.908L46.4645 90.932ZM50.4165 88.82V90.756L50.1925 92.58H49.8885H49.5845L49.3605 90.756V88.82H50.4165ZM53.3125 90.932L53.6165 91.908L51.7925 92.516L49.9845 92.868L49.8885 92.58L49.7925 92.292L51.4565 91.508L53.3125 90.932ZM59.2848 92.404L60.5488 93.748L61.6688 95.316L60.8368 95.924L59.6848 94.372L58.8048 92.756L59.0448 92.58L59.2848 92.404ZM58.8048 92.404L59.0448 92.58L59.2848 92.756L58.4048 94.372L57.2528 95.924L56.4208 95.316L57.5408 93.748L58.8048 92.404ZM55.6208 90.932L57.4768 91.508L59.1408 92.292L59.0448 92.58L58.9488 92.868L57.1408 92.516L55.3168 91.908L55.6208 90.932ZM59.5728 88.82V90.756L59.3488 92.58H59.0448H58.7408L58.5168 90.756V88.82H59.5728ZM62.4688 90.932L62.7728 91.908L60.9488 92.516L59.1408 92.868L59.0448 92.58L58.9488 92.292L60.6128 91.508L62.4688 90.932Z" fill="white"/>
<path d="M90.816 92.404L92.08 93.748L93.2 95.316L92.368 95.924L91.216 94.372L90.336 92.756L90.576 92.58L90.816 92.404ZM90.336 92.404L90.576 92.58L90.816 92.756L89.936 94.372L88.784 95.924L87.952 95.316L89.072 93.748L90.336 92.404ZM87.152 90.932L89.008 91.508L90.672 92.292L90.576 92.58L90.48 92.868L88.672 92.516L86.848 91.908L87.152 90.932ZM91.104 88.82V90.756L90.88 92.58H90.576H90.272L90.048 90.756V88.82H91.104ZM94 90.932L94.304 91.908L92.48 92.516L90.672 92.868L90.576 92.58L90.48 92.292L92.144 91.508L94 90.932ZM99.9723 92.404L101.236 93.748L102.356 95.316L101.524 95.924L100.372 94.372L99.4923 92.756L99.7323 92.58L99.9723 92.404ZM99.4923 92.404L99.7323 92.58L99.9723 92.756L99.0923 94.372L97.9403 95.924L97.1083 95.316L98.2283 93.748L99.4923 92.404ZM96.3083 90.932L98.1643 91.508L99.8283 92.292L99.7323 92.58L99.6363 92.868L97.8283 92.516L96.0043 91.908L96.3083 90.932ZM100.26 88.82V90.756L100.036 92.58H99.7323H99.4283L99.2043 90.756V88.82H100.26ZM103.156 90.932L103.46 91.908L101.636 92.516L99.8283 92.868L99.7323 92.58L99.6363 92.292L101.3 91.508L103.156 90.932ZM109.129 92.404L110.393 93.748L111.513 95.316L110.681 95.924L109.529 94.372L108.649 92.756L108.889 92.58L109.129 92.404ZM108.649 92.404L108.889 92.58L109.129 92.756L108.249 94.372L107.097 95.924L106.265 95.316L107.385 93.748L108.649 92.404ZM105.465 90.932L107.321 91.508L108.985 92.292L108.889 92.58L108.793 92.868L106.985 92.516L105.161 91.908L105.465 90.932ZM109.417 88.82V90.756L109.193 92.58H108.889H108.585L108.361 90.756V88.82H109.417ZM112.312 90.932L112.617 91.908L110.793 92.516L108.985 92.868L108.889 92.58L108.793 92.292L110.457 91.508L112.312 90.932ZM118.285 92.404L119.549 93.748L120.669 95.316L119.837 95.924L118.685 94.372L117.805 92.756L118.045 92.58L118.285 92.404ZM117.805 92.404L118.045 92.58L118.285 92.756L117.405 94.372L116.253 95.924L115.421 95.316L116.541 93.748L117.805 92.404ZM114.621 90.932L116.477 91.508L118.141 92.292L118.045 92.58L117.949 92.868L116.141 92.516L114.317 91.908L114.621 90.932ZM118.573 88.82V90.756L118.349 92.58H118.045H117.741L117.517 90.756V88.82H118.573ZM121.469 90.932L121.773 91.908L119.949 92.516L118.141 92.868L118.045 92.58L117.949 92.292L119.613 91.508L121.469 90.932Z" fill="white"/>
<path d="M149.816 92.404L151.08 93.748L152.2 95.316L151.368 95.924L150.216 94.372L149.336 92.756L149.576 92.58L149.816 92.404ZM149.336 92.404L149.576 92.58L149.816 92.756L148.936 94.372L147.784 95.924L146.952 95.316L148.072 93.748L149.336 92.404ZM146.152 90.932L148.008 91.508L149.672 92.292L149.576 92.58L149.48 92.868L147.672 92.516L145.848 91.908L146.152 90.932ZM150.104 88.82V90.756L149.88 92.58H149.576H149.272L149.048 90.756V88.82H150.104ZM153 90.932L153.304 91.908L151.48 92.516L149.672 92.868L149.576 92.58L149.48 92.292L151.144 91.508L153 90.932ZM158.972 92.404L160.236 93.748L161.356 95.316L160.524 95.924L159.372 94.372L158.492 92.756L158.732 92.58L158.972 92.404ZM158.492 92.404L158.732 92.58L158.972 92.756L158.092 94.372L156.94 95.924L156.108 95.316L157.228 93.748L158.492 92.404ZM155.308 90.932L157.164 91.508L158.828 92.292L158.732 92.58L158.636 92.868L156.828 92.516L155.004 91.908L155.308 90.932ZM159.26 88.82V90.756L159.036 92.58H158.732H158.428L158.204 90.756V88.82H159.26ZM162.156 90.932L162.46 91.908L160.636 92.516L158.828 92.868L158.732 92.58L158.636 92.292L160.3 91.508L162.156 90.932ZM168.129 92.404L169.393 93.748L170.513 95.316L169.681 95.924L168.529 94.372L167.649 92.756L167.889 92.58L168.129 92.404ZM167.649 92.404L167.889 92.58L168.129 92.756L167.249 94.372L166.097 95.924L165.265 95.316L166.385 93.748L167.649 92.404ZM164.465 90.932L166.321 91.508L167.985 92.292L167.889 92.58L167.793 92.868L165.985 92.516L164.161 91.908L164.465 90.932ZM168.417 88.82V90.756L168.193 92.58H167.889H167.585L167.361 90.756V88.82H168.417ZM171.312 90.932L171.617 91.908L169.793 92.516L167.985 92.868L167.889 92.58L167.793 92.292L169.457 91.508L171.312 90.932ZM177.285 92.404L178.549 93.748L179.669 95.316L178.837 95.924L177.685 94.372L176.805 92.756L177.045 92.58L177.285 92.404ZM176.805 92.404L177.045 92.58L177.285 92.756L176.405 94.372L175.253 95.924L174.421 95.316L175.541 93.748L176.805 92.404ZM173.621 90.932L175.477 91.508L177.141 92.292L177.045 92.58L176.949 92.868L175.141 92.516L173.317 91.908L173.621 90.932ZM177.573 88.82V90.756L177.349 92.58H177.045H176.741L176.517 90.756V88.82H177.573ZM180.469 90.932L180.773 91.908L178.949 92.516L177.141 92.868L177.045 92.58L176.949 92.292L178.613 91.508L180.469 90.932Z" fill="white"/>
<path d="M208.816 92.404L210.08 93.748L211.2 95.316L210.368 95.924L209.216 94.372L208.336 92.756L208.576 92.58L208.816 92.404ZM208.336 92.404L208.576 92.58L208.816 92.756L207.936 94.372L206.784 95.924L205.952 95.316L207.072 93.748L208.336 92.404ZM205.152 90.932L207.008 91.508L208.672 92.292L208.576 92.58L208.48 92.868L206.672 92.516L204.848 91.908L205.152 90.932ZM209.104 88.82V90.756L208.88 92.58H208.576H208.272L208.048 90.756V88.82H209.104ZM212 90.932L212.304 91.908L210.48 92.516L208.672 92.868L208.576 92.58L208.48 92.292L210.144 91.508L212 90.932ZM217.972 92.404L219.236 93.748L220.356 95.316L219.524 95.924L218.372 94.372L217.492 92.756L217.732 92.58L217.972 92.404ZM217.492 92.404L217.732 92.58L217.972 92.756L217.092 94.372L215.94 95.924L215.108 95.316L216.228 93.748L217.492 92.404ZM214.308 90.932L216.164 91.508L217.828 92.292L217.732 92.58L217.636 92.868L215.828 92.516L214.004 91.908L214.308 90.932ZM218.26 88.82V90.756L218.036 92.58H217.732H217.428L217.204 90.756V88.82H218.26ZM221.156 90.932L221.46 91.908L219.636 92.516L217.828 92.868L217.732 92.58L217.636 92.292L219.3 91.508L221.156 90.932ZM227.129 92.404L228.393 93.748L229.513 95.316L228.681 95.924L227.529 94.372L226.649 92.756L226.889 92.58L227.129 92.404ZM226.649 92.404L226.889 92.58L227.129 92.756L226.249 94.372L225.097 95.924L224.265 95.316L225.385 93.748L226.649 92.404ZM223.465 90.932L225.321 91.508L226.985 92.292L226.889 92.58L226.793 92.868L224.985 92.516L223.161 91.908L223.465 90.932ZM227.417 88.82V90.756L227.193 92.58H226.889H226.585L226.361 90.756V88.82H227.417ZM230.312 90.932L230.617 91.908L228.793 92.516L226.985 92.868L226.889 92.58L226.793 92.292L228.457 91.508L230.312 90.932ZM236.285 92.404L237.549 93.748L238.669 95.316L237.837 95.924L236.685 94.372L235.805 92.756L236.045 92.58L236.285 92.404ZM235.805 92.404L236.045 92.58L236.285 92.756L235.405 94.372L234.253 95.924L233.421 95.316L234.541 93.748L235.805 92.404ZM232.621 90.932L234.477 91.508L236.141 92.292L236.045 92.58L235.949 92.868L234.141 92.516L232.317 91.908L232.621 90.932ZM236.573 88.82V90.756L236.349 92.58H236.045H235.741L235.517 90.756V88.82H236.573ZM239.469 90.932L239.773 91.908L237.949 92.516L236.141 92.868L236.045 92.58L235.949 92.292L237.613 91.508L239.469 90.932Z" fill="white"/>
<path d="M32.16 130.6C32.0533 130.92 31.8933 131.192 31.68 131.416C31.4667 131.635 31.216 131.8 30.928 131.912C30.64 132.024 30.3227 132.08 29.976 132.08C29.4693 132.08 29.0293 131.971 28.656 131.752C28.2827 131.533 27.9947 131.221 27.792 130.816C27.5893 130.411 27.488 129.925 27.488 129.36C27.488 128.795 27.5893 128.309 27.792 127.904C27.9947 127.499 28.2827 127.187 28.656 126.968C29.0293 126.749 29.4667 126.64 29.968 126.64C30.3147 126.64 30.6267 126.688 30.904 126.784C31.1867 126.88 31.4267 127.024 31.624 127.216C31.8213 127.408 31.9733 127.648 32.08 127.936L31.272 128.296C31.1653 127.981 31.0107 127.752 30.808 127.608C30.6053 127.459 30.3413 127.384 30.016 127.384C29.6907 127.384 29.4053 127.461 29.16 127.616C28.9147 127.771 28.7227 127.995 28.584 128.288C28.4507 128.581 28.384 128.939 28.384 129.36C28.384 129.776 28.448 130.133 28.576 130.432C28.704 130.725 28.888 130.949 29.128 131.104C29.368 131.259 29.656 131.336 29.992 131.336C30.3173 131.336 30.5973 131.253 30.832 131.088C31.072 130.917 31.2427 130.664 31.344 130.328L32.16 130.6ZM35.4448 129.432C35.4448 129.165 35.3701 128.96 35.2208 128.816C35.0768 128.667 34.8768 128.592 34.6208 128.592C34.3808 128.592 34.1754 128.648 34.0048 128.76C33.8341 128.872 33.7088 129.053 33.6288 129.304L32.9088 129C33.0101 128.675 33.2074 128.413 33.5008 128.216C33.7994 128.019 34.1834 127.92 34.6528 127.92C34.9728 127.92 35.2554 127.973 35.5008 128.08C35.7461 128.181 35.9381 128.336 36.0768 128.544C36.2208 128.752 36.2928 129.019 36.2928 129.344V131.128C36.2928 131.325 36.3914 131.424 36.5888 131.424C36.6848 131.424 36.7781 131.411 36.8688 131.384L36.8208 131.976C36.6981 132.035 36.5434 132.064 36.3568 132.064C36.1861 132.064 36.0314 132.035 35.8928 131.976C35.7594 131.912 35.6528 131.819 35.5728 131.696C35.4981 131.568 35.4608 131.411 35.4608 131.224V131.168L35.6368 131.16C35.5888 131.368 35.4901 131.541 35.3408 131.68C35.1914 131.813 35.0181 131.915 34.8207 131.984C34.6234 132.048 34.4234 132.08 34.2208 132.08C33.9701 132.08 33.7434 132.04 33.5408 131.96C33.3434 131.88 33.1861 131.76 33.0688 131.6C32.9568 131.435 32.9008 131.232 32.9008 130.992C32.9008 130.693 32.9968 130.448 33.1888 130.256C33.3861 130.064 33.6634 129.933 34.0208 129.864L35.5728 129.56L35.5648 130.16L34.4368 130.392C34.2128 130.435 34.0448 130.496 33.9328 130.576C33.8208 130.656 33.7648 130.773 33.7648 130.928C33.7648 131.077 33.8208 131.197 33.9328 131.288C34.0501 131.373 34.2048 131.416 34.3968 131.416C34.5301 131.416 34.6581 131.4 34.7808 131.368C34.9088 131.336 35.0234 131.285 35.1248 131.216C35.2261 131.141 35.3034 131.048 35.3568 130.936C35.4154 130.819 35.4448 130.68 35.4448 130.52V129.432ZM37.6953 132V128H38.4233L38.5033 128.72C38.6099 128.459 38.7673 128.261 38.9753 128.128C39.1886 127.989 39.4499 127.92 39.7593 127.92C39.8393 127.92 39.9193 127.928 39.9993 127.944C40.0793 127.955 40.1459 127.973 40.1993 128L40.0793 128.752C40.0206 128.731 39.9539 128.715 39.8793 128.704C39.8099 128.688 39.7139 128.68 39.5913 128.68C39.4259 128.68 39.2633 128.725 39.1033 128.816C38.9433 128.901 38.8099 129.032 38.7033 129.208C38.6019 129.384 38.5513 129.608 38.5513 129.88V132H37.6953ZM42.4422 132.08C42.1115 132.08 41.8102 131.997 41.5382 131.832C41.2715 131.667 41.0609 131.429 40.9062 131.12C40.7515 130.811 40.6742 130.44 40.6742 130.008C40.6742 129.56 40.7569 129.181 40.9222 128.872C41.0875 128.563 41.3089 128.328 41.5862 128.168C41.8635 128.003 42.1675 127.92 42.4982 127.92C42.8395 127.92 43.1275 128.013 43.3622 128.2C43.5969 128.387 43.7542 128.629 43.8342 128.928L43.7382 129.016V126.2H44.5942V132H43.8342L43.7702 130.912L43.8822 130.92C43.8449 131.16 43.7569 131.368 43.6182 131.544C43.4795 131.715 43.3062 131.848 43.0982 131.944C42.8955 132.035 42.6769 132.08 42.4422 132.08ZM42.6262 131.392C42.8555 131.392 43.0529 131.333 43.2182 131.216C43.3835 131.099 43.5115 130.933 43.6022 130.72C43.6929 130.507 43.7382 130.251 43.7382 129.952C43.7382 129.675 43.6929 129.437 43.6022 129.24C43.5115 129.037 43.3835 128.883 43.2182 128.776C43.0582 128.669 42.8715 128.616 42.6582 128.616C42.3009 128.616 42.0235 128.739 41.8262 128.984C41.6289 129.229 41.5302 129.568 41.5302 130C41.5302 130.432 41.6262 130.773 41.8182 131.024C42.0102 131.269 42.2795 131.392 42.6262 131.392ZM48.5234 132V126.2H49.3794V128.64C49.5127 128.389 49.6914 128.208 49.9154 128.096C50.1447 127.979 50.398 127.92 50.6754 127.92C50.958 127.92 51.2114 127.976 51.4354 128.088C51.6647 128.195 51.846 128.357 51.9794 128.576C52.1127 128.795 52.1794 129.072 52.1794 129.408V132H51.3234V129.68C51.3234 129.285 51.2407 129.011 51.0754 128.856C50.9154 128.701 50.7127 128.624 50.4674 128.624C50.2967 128.624 50.126 128.667 49.9554 128.752C49.79 128.832 49.6514 128.965 49.5394 129.152C49.4327 129.333 49.3794 129.579 49.3794 129.888V132H48.5234ZM55.2125 127.92C55.6018 127.92 55.9458 128.003 56.2445 128.168C56.5432 128.333 56.7752 128.573 56.9405 128.888C57.1112 129.197 57.1965 129.568 57.1965 130C57.1965 130.432 57.1112 130.805 56.9405 131.12C56.7752 131.429 56.5432 131.667 56.2445 131.832C55.9458 131.997 55.6018 132.08 55.2125 132.08C54.8232 132.08 54.4792 131.997 54.1805 131.832C53.8818 131.667 53.6472 131.429 53.4765 131.12C53.3058 130.805 53.2205 130.432 53.2205 130C53.2205 129.568 53.3058 129.197 53.4765 128.888C53.6472 128.573 53.8818 128.333 54.1805 128.168C54.4792 128.003 54.8232 127.92 55.2125 127.92ZM55.2125 128.592C54.9725 128.592 54.7672 128.648 54.5965 128.76C54.4312 128.867 54.3032 129.024 54.2125 129.232C54.1218 129.44 54.0765 129.696 54.0765 130C54.0765 130.299 54.1218 130.555 54.2125 130.768C54.3032 130.976 54.4312 131.136 54.5965 131.248C54.7672 131.355 54.9725 131.408 55.2125 131.408C55.4525 131.408 55.6552 131.355 55.8205 131.248C55.9858 131.136 56.1138 130.976 56.2045 130.768C56.2952 130.555 56.3405 130.299 56.3405 130C56.3405 129.696 56.2952 129.44 56.2045 129.232C56.1138 129.024 55.9858 128.867 55.8205 128.76C55.6552 128.648 55.4525 128.592 55.2125 128.592ZM59.1054 126.2V130.88C59.1054 131.077 59.14 131.213 59.2094 131.288C59.2787 131.363 59.3934 131.4 59.5534 131.4C59.6494 131.4 59.7294 131.395 59.7934 131.384C59.8627 131.368 59.948 131.341 60.0494 131.304L59.9534 131.944C59.8627 131.987 59.7587 132.019 59.6414 132.04C59.524 132.067 59.4067 132.08 59.2894 132.08C58.932 132.08 58.668 131.989 58.4974 131.808C58.332 131.621 58.2494 131.336 58.2494 130.952V126.2H59.1054ZM62.3016 132.08C61.9709 132.08 61.6696 131.997 61.3976 131.832C61.1309 131.667 60.9202 131.429 60.7656 131.12C60.6109 130.811 60.5336 130.44 60.5336 130.008C60.5336 129.56 60.6162 129.181 60.7816 128.872C60.9469 128.563 61.1682 128.328 61.4456 128.168C61.7229 128.003 62.0269 127.92 62.3576 127.92C62.6989 127.92 62.9869 128.013 63.2216 128.2C63.4562 128.387 63.6136 128.629 63.6936 128.928L63.5976 129.016V126.2H64.4536V132H63.6936L63.6296 130.912L63.7416 130.92C63.7042 131.16 63.6162 131.368 63.4776 131.544C63.3389 131.715 63.1656 131.848 62.9576 131.944C62.7549 132.035 62.5362 132.08 62.3016 132.08ZM62.4856 131.392C62.7149 131.392 62.9122 131.333 63.0776 131.216C63.2429 131.099 63.3709 130.933 63.4616 130.72C63.5522 130.507 63.5976 130.251 63.5976 129.952C63.5976 129.675 63.5522 129.437 63.4616 129.24C63.3709 129.037 63.2429 128.883 63.0776 128.776C62.9176 128.669 62.7309 128.616 62.5176 128.616C62.1602 128.616 61.8829 128.739 61.6856 128.984C61.4882 129.229 61.3896 129.568 61.3896 130C61.3896 130.432 61.4856 130.773 61.6776 131.024C61.8696 131.269 62.1389 131.392 62.4856 131.392ZM67.5412 132.08C67.1412 132.08 66.7892 131.997 66.4852 131.832C66.1812 131.667 65.9439 131.429 65.7732 131.12C65.6079 130.805 65.5252 130.432 65.5252 130C65.5252 129.568 65.6079 129.197 65.7732 128.888C65.9439 128.573 66.1785 128.333 66.4772 128.168C66.7759 128.003 67.1145 127.92 67.4932 127.92C67.8825 127.92 68.2132 128 68.4852 128.16C68.7572 128.32 68.9652 128.539 69.1092 128.816C69.2532 129.093 69.3252 129.408 69.3252 129.76C69.3252 129.856 69.3225 129.947 69.3172 130.032C69.3119 130.117 69.3039 130.192 69.2932 130.256H66.0772V129.6H68.9172L68.4932 129.728C68.4932 129.365 68.4025 129.088 68.2212 128.896C68.0399 128.699 67.7919 128.6 67.4772 128.6C67.2479 128.6 67.0479 128.653 66.8772 128.76C66.7065 128.867 66.5759 129.027 66.4852 129.24C66.3945 129.448 66.3492 129.704 66.3492 130.008C66.3492 130.307 66.3972 130.56 66.4932 130.768C66.5892 130.976 66.7252 131.133 66.9012 131.24C67.0772 131.347 67.2852 131.4 67.5252 131.4C67.7919 131.4 68.0079 131.349 68.1732 131.248C68.3385 131.147 68.4692 131.005 68.5652 130.824L69.2452 131.144C69.1492 131.336 69.0185 131.504 68.8532 131.648C68.6932 131.787 68.5012 131.893 68.2772 131.968C68.0532 132.043 67.8079 132.08 67.5412 132.08ZM70.4062 132V128H71.1342L71.2142 128.72C71.3209 128.459 71.4782 128.261 71.6862 128.128C71.8995 127.989 72.1609 127.92 72.4702 127.92C72.5502 127.92 72.6302 127.928 72.7102 127.944C72.7902 127.955 72.8569 127.973 72.9102 128L72.7902 128.752C72.7315 128.731 72.6649 128.715 72.5902 128.704C72.5209 128.688 72.4249 128.68 72.3022 128.68C72.1369 128.68 71.9742 128.725 71.8142 128.816C71.6542 128.901 71.5209 129.032 71.4142 129.208C71.3129 129.384 71.2622 129.608 71.2622 129.88V132H70.4062ZM76.1484 132V128H76.9084L76.9644 129.04L76.8524 128.928C76.927 128.699 77.0337 128.509 77.1724 128.36C77.3164 128.205 77.4844 128.093 77.6764 128.024C77.8737 127.955 78.0817 127.92 78.3004 127.92C78.583 127.92 78.8364 127.976 79.0604 128.088C79.2897 128.195 79.471 128.357 79.6044 128.576C79.7377 128.795 79.8044 129.072 79.8044 129.408V132H78.9484V129.672C78.9484 129.277 78.8657 129.005 78.7004 128.856C78.5404 128.701 78.3377 128.624 78.0924 128.624C77.9164 128.624 77.7457 128.667 77.5804 128.752C77.415 128.832 77.2764 128.963 77.1644 129.144C77.0577 129.325 77.0044 129.568 77.0044 129.872V132H76.1484ZM83.4135 129.432C83.4135 129.165 83.3388 128.96 83.1895 128.816C83.0455 128.667 82.8455 128.592 82.5895 128.592C82.3495 128.592 82.1442 128.648 81.9735 128.76C81.8028 128.872 81.6775 129.053 81.5975 129.304L80.8775 129C80.9788 128.675 81.1762 128.413 81.4695 128.216C81.7682 128.019 82.1522 127.92 82.6215 127.92C82.9415 127.92 83.2242 127.973 83.4695 128.08C83.7148 128.181 83.9068 128.336 84.0455 128.544C84.1895 128.752 84.2615 129.019 84.2615 129.344V131.128C84.2615 131.325 84.3602 131.424 84.5575 131.424C84.6535 131.424 84.7468 131.411 84.8375 131.384L84.7895 131.976C84.6668 132.035 84.5122 132.064 84.3255 132.064C84.1548 132.064 84.0002 132.035 83.8615 131.976C83.7282 131.912 83.6215 131.819 83.5415 131.696C83.4668 131.568 83.4295 131.411 83.4295 131.224V131.168L83.6055 131.16C83.5575 131.368 83.4588 131.541 83.3095 131.68C83.1602 131.813 82.9868 131.915 82.7895 131.984C82.5922 132.048 82.3922 132.08 82.1895 132.08C81.9388 132.08 81.7122 132.04 81.5095 131.96C81.3122 131.88 81.1548 131.76 81.0375 131.6C80.9255 131.435 80.8695 131.232 80.8695 130.992C80.8695 130.693 80.9655 130.448 81.1575 130.256C81.3548 130.064 81.6322 129.933 81.9895 129.864L83.5415 129.56L83.5335 130.16L82.4055 130.392C82.1815 130.435 82.0135 130.496 81.9015 130.576C81.7895 130.656 81.7335 130.773 81.7335 130.928C81.7335 131.077 81.7895 131.197 81.9015 131.288C82.0188 131.373 82.1735 131.416 82.3655 131.416C82.4988 131.416 82.6268 131.4 82.7495 131.368C82.8775 131.336 82.9922 131.285 83.0935 131.216C83.1948 131.141 83.2722 131.048 83.3255 130.936C83.3842 130.819 83.4135 130.68 83.4135 130.52V129.432ZM85.664 132V128H86.424L86.464 128.672C86.6027 128.416 86.7867 128.227 87.016 128.104C87.2507 127.981 87.4987 127.92 87.76 127.92C88.048 127.92 88.312 127.987 88.552 128.12C88.7973 128.248 88.9813 128.443 89.104 128.704C89.1893 128.528 89.3067 128.381 89.456 128.264C89.6053 128.147 89.7707 128.061 89.952 128.008C90.1333 127.949 90.312 127.92 90.488 127.92C90.744 127.92 90.984 127.973 91.208 128.08C91.432 128.187 91.6133 128.349 91.752 128.568C91.8907 128.787 91.96 129.067 91.96 129.408V132H91.104V129.544C91.104 129.219 91.0267 128.984 90.872 128.84C90.7173 128.696 90.52 128.624 90.28 128.624C90.0933 128.624 89.92 128.669 89.76 128.76C89.6053 128.851 89.48 128.987 89.384 129.168C89.288 129.344 89.24 129.563 89.24 129.824V132H88.384V129.544C88.384 129.219 88.3067 128.984 88.152 128.84C87.9973 128.696 87.8 128.624 87.56 128.624C87.4 128.624 87.24 128.667 87.08 128.752C86.92 128.837 86.7867 128.971 86.68 129.152C86.5733 129.333 86.52 129.573 86.52 129.872V132H85.664ZM95.0178 132.08C94.6178 132.08 94.2658 131.997 93.9618 131.832C93.6578 131.667 93.4204 131.429 93.2498 131.12C93.0844 130.805 93.0018 130.432 93.0018 130C93.0018 129.568 93.0844 129.197 93.2498 128.888C93.4204 128.573 93.6551 128.333 93.9538 128.168C94.2524 128.003 94.5911 127.92 94.9698 127.92C95.3591 127.92 95.6898 128 95.9618 128.16C96.2338 128.32 96.4418 128.539 96.5858 128.816C96.7298 129.093 96.8018 129.408 96.8018 129.76C96.8018 129.856 96.7991 129.947 96.7938 130.032C96.7884 130.117 96.7804 130.192 96.7698 130.256H93.5538V129.6H96.3938L95.9698 129.728C95.9698 129.365 95.8791 129.088 95.6978 128.896C95.5164 128.699 95.2684 128.6 94.9538 128.6C94.7244 128.6 94.5244 128.653 94.3538 128.76C94.1831 128.867 94.0524 129.027 93.9618 129.24C93.8711 129.448 93.8258 129.704 93.8258 130.008C93.8258 130.307 93.8738 130.56 93.9698 130.768C94.0658 130.976 94.2018 131.133 94.3778 131.24C94.5538 131.347 94.7618 131.4 95.0018 131.4C95.2684 131.4 95.4844 131.349 95.6498 131.248C95.8151 131.147 95.9458 131.005 96.0418 130.824L96.7218 131.144C96.6258 131.336 96.4951 131.504 96.3298 131.648C96.1698 131.787 95.9778 131.893 95.7538 131.968C95.5298 132.043 95.2844 132.08 95.0178 132.08Z" fill="white"/>
<path d="M30.612 142.928L31.56 143.936L32.4 145.112L31.776 145.568L30.912 144.404L30.252 143.192L30.432 143.06L30.612 142.928ZM30.252 142.928L30.432 143.06L30.612 143.192L29.952 144.404L29.088 145.568L28.464 145.112L29.304 143.936L30.252 142.928ZM27.864 141.824L29.256 142.256L30.504 142.844L30.432 143.06L30.36 143.276L29.004 143.012L27.636 142.556L27.864 141.824ZM30.828 140.24V141.692L30.66 143.06H30.432H30.204L30.036 141.692V140.24H30.828ZM33 141.824L33.228 142.556L31.86 143.012L30.504 143.276L30.432 143.06L30.36 142.844L31.608 142.256L33 141.824ZM37.4792 142.928L38.4272 143.936L39.2672 145.112L38.6432 145.568L37.7792 144.404L37.1192 143.192L37.2992 143.06L37.4792 142.928ZM37.1192 142.928L37.2992 143.06L37.4792 143.192L36.8192 144.404L35.9552 145.568L35.3312 145.112L36.1712 143.936L37.1192 142.928ZM34.7312 141.824L36.1232 142.256L37.3712 142.844L37.2992 143.06L37.2272 143.276L35.8712 143.012L34.5032 142.556L34.7312 141.824ZM37.6952 140.24V141.692L37.5272 143.06H37.2992H37.0712L36.9032 141.692V140.24H37.6952ZM39.8672 141.824L40.0952 142.556L38.7272 143.012L37.3712 143.276L37.2992 143.06L37.2272 142.844L38.4752 142.256L39.8672 141.824ZM44.3464 142.928L45.2944 143.936L46.1344 145.112L45.5104 145.568L44.6464 144.404L43.9864 143.192L44.1664 143.06L44.3464 142.928ZM43.9864 142.928L44.1664 143.06L44.3464 143.192L43.6864 144.404L42.8224 145.568L42.1984 145.112L43.0384 143.936L43.9864 142.928ZM41.5984 141.824L42.9904 142.256L44.2384 142.844L44.1664 143.06L44.0944 143.276L42.7384 143.012L41.3704 142.556L41.5984 141.824ZM44.5624 140.24V141.692L44.3944 143.06H44.1664H43.9384L43.7704 141.692V140.24H44.5624ZM46.7344 141.824L46.9624 142.556L45.5944 143.012L44.2384 143.276L44.1664 143.06L44.0944 142.844L45.3424 142.256L46.7344 141.824ZM51.2136 142.928L52.1616 143.936L53.0016 145.112L52.3776 145.568L51.5136 144.404L50.8536 143.192L51.0336 143.06L51.2136 142.928ZM50.8536 142.928L51.0336 143.06L51.2136 143.192L50.5536 144.404L49.6896 145.568L49.0656 145.112L49.9056 143.936L50.8536 142.928ZM48.4656 141.824L49.8576 142.256L51.1056 142.844L51.0336 143.06L50.9616 143.276L49.6056 143.012L48.2376 142.556L48.4656 141.824ZM51.4296 140.24V141.692L51.2616 143.06H51.0336H50.8056L50.6376 141.692V140.24H51.4296ZM53.6016 141.824L53.8296 142.556L52.4616 143.012L51.1056 143.276L51.0336 143.06L50.9616 142.844L52.2096 142.256L53.6016 141.824ZM58.0808 142.928L59.0288 143.936L59.8688 145.112L59.2448 145.568L58.3808 144.404L57.7208 143.192L57.9008 143.06L58.0808 142.928ZM57.7208 142.928L57.9008 143.06L58.0808 143.192L57.4208 144.404L56.5568 145.568L55.9328 145.112L56.7728 143.936L57.7208 142.928ZM55.3328 141.824L56.7248 142.256L57.9728 142.844L57.9008 143.06L57.8288 143.276L56.4728 143.012L55.1048 142.556L55.3328 141.824ZM58.2968 140.24V141.692L58.1288 143.06H57.9008H57.6728L57.5048 141.692V140.24H58.2968ZM60.4688 141.824L60.6968 142.556L59.3288 143.012L57.9728 143.276L57.9008 143.06L57.8288 142.844L59.0768 142.256L60.4688 141.824ZM64.9479 142.928L65.8959 143.936L66.7359 145.112L66.1119 145.568L65.2479 144.404L64.5879 143.192L64.7679 143.06L64.9479 142.928ZM64.5879 142.928L64.7679 143.06L64.9479 143.192L64.2879 144.404L63.4239 145.568L62.7999 145.112L63.6399 143.936L64.5879 142.928ZM62.1999 141.824L63.5919 142.256L64.8399 142.844L64.7679 143.06L64.6959 143.276L63.3399 143.012L61.9719 142.556L62.1999 141.824ZM65.1639 140.24V141.692L64.9959 143.06H64.7679H64.5399L64.3719 141.692V140.24H65.1639ZM67.3359 141.824L67.5639 142.556L66.1959 143.012L64.8399 143.276L64.7679 143.06L64.6959 142.844L65.9439 142.256L67.3359 141.824ZM71.8151 142.928L72.7631 143.936L73.6031 145.112L72.9791 145.568L72.1151 144.404L71.4551 143.192L71.6351 143.06L71.8151 142.928ZM71.4551 142.928L71.6351 143.06L71.8151 143.192L71.1551 144.404L70.2911 145.568L69.6671 145.112L70.5071 143.936L71.4551 142.928ZM69.0671 141.824L70.4591 142.256L71.7071 142.844L71.6351 143.06L71.5631 143.276L70.2071 143.012L68.8391 142.556L69.0671 141.824ZM72.0311 140.24V141.692L71.8631 143.06H71.6351H71.4071L71.2391 141.692V140.24H72.0311ZM74.2031 141.824L74.4311 142.556L73.0631 143.012L71.7071 143.276L71.6351 143.06L71.5631 142.844L72.8111 142.256L74.2031 141.824ZM78.6823 142.928L79.6303 143.936L80.4703 145.112L79.8463 145.568L78.9823 144.404L78.3223 143.192L78.5023 143.06L78.6823 142.928ZM78.3223 142.928L78.5023 143.06L78.6823 143.192L78.0223 144.404L77.1583 145.568L76.5343 145.112L77.3743 143.936L78.3223 142.928ZM75.9343 141.824L77.3263 142.256L78.5743 142.844L78.5023 143.06L78.4303 143.276L77.0743 143.012L75.7063 142.556L75.9343 141.824ZM78.8983 140.24V141.692L78.7303 143.06H78.5023H78.2743L78.1063 141.692V140.24H78.8983ZM81.0703 141.824L81.2983 142.556L79.9303 143.012L78.5743 143.276L78.5023 143.06L78.4303 142.844L79.6783 142.256L81.0703 141.824ZM85.5495 142.928L86.4975 143.936L87.3375 145.112L86.7135 145.568L85.8495 144.404L85.1895 143.192L85.3695 143.06L85.5495 142.928ZM85.1895 142.928L85.3695 143.06L85.5495 143.192L84.8895 144.404L84.0255 145.568L83.4015 145.112L84.2415 143.936L85.1895 142.928ZM82.8015 141.824L84.1935 142.256L85.4415 142.844L85.3695 143.06L85.2975 143.276L83.9415 143.012L82.5735 142.556L82.8015 141.824ZM85.7655 140.24V141.692L85.5975 143.06H85.3695H85.1415L84.9735 141.692V140.24H85.7655ZM87.9375 141.824L88.1655 142.556L86.7975 143.012L85.4415 143.276L85.3695 143.06L85.2975 142.844L86.5455 142.256L87.9375 141.824Z" fill="white"/>
<path d="M123.784 132V126.72H127.608V127.456H124.64V128.976H126.96V129.696H124.64V131.264H127.72V132H123.784ZM129.374 128L130.502 129.712L130.662 129.736L132.286 132H131.27L130.094 130.24L129.91 130.176L128.342 128H129.374ZM132.262 128L130.694 130.144L130.518 130.136L129.238 132H128.262L129.966 129.72L130.134 129.736L131.278 128H132.262ZM133.148 133.68V128H133.908L133.972 129.12L133.86 128.984C133.924 128.776 134.023 128.592 134.156 128.432C134.29 128.272 134.455 128.147 134.652 128.056C134.855 127.965 135.076 127.92 135.316 127.92C135.642 127.92 135.938 128.003 136.204 128.168C136.471 128.333 136.682 128.571 136.836 128.88C136.991 129.184 137.068 129.555 137.068 129.992C137.068 130.429 136.988 130.805 136.828 131.12C136.674 131.429 136.46 131.667 136.188 131.832C135.922 131.997 135.623 132.08 135.292 132.08C134.951 132.08 134.66 131.992 134.42 131.816C134.18 131.635 134.01 131.405 133.908 131.128L134.004 130.992V133.68H133.148ZM135.108 131.384C135.455 131.384 135.724 131.261 135.916 131.016C136.114 130.771 136.212 130.432 136.212 130C136.212 129.568 136.116 129.229 135.924 128.984C135.732 128.733 135.466 128.608 135.124 128.608C134.9 128.608 134.703 128.667 134.532 128.784C134.367 128.896 134.236 129.056 134.14 129.264C134.05 129.467 134.004 129.712 134.004 130C134.004 130.283 134.05 130.528 134.14 130.736C134.231 130.944 134.359 131.104 134.524 131.216C134.69 131.328 134.884 131.384 135.108 131.384ZM138.596 127.328C138.409 127.328 138.265 127.283 138.164 127.192C138.068 127.096 138.02 126.963 138.02 126.792C138.02 126.621 138.068 126.491 138.164 126.4C138.265 126.309 138.409 126.264 138.596 126.264C138.777 126.264 138.916 126.309 139.012 126.4C139.113 126.491 139.164 126.621 139.164 126.792C139.164 126.963 139.113 127.096 139.012 127.192C138.916 127.283 138.777 127.328 138.596 127.328ZM139.02 128V132H138.164V128H139.02ZM140.359 132V128H141.087L141.167 128.72C141.274 128.459 141.431 128.261 141.639 128.128C141.853 127.989 142.114 127.92 142.423 127.92C142.503 127.92 142.583 127.928 142.663 127.944C142.743 127.955 142.81 127.973 142.863 128L142.743 128.752C142.685 128.731 142.618 128.715 142.543 128.704C142.474 128.688 142.378 128.68 142.255 128.68C142.09 128.68 141.927 128.725 141.767 128.816C141.607 128.901 141.474 129.032 141.367 129.208C141.266 129.384 141.215 129.608 141.215 129.88V132H140.359ZM147.184 128L145.432 132.472C145.314 132.781 145.186 133.027 145.048 133.208C144.914 133.389 144.76 133.52 144.584 133.6C144.408 133.68 144.202 133.72 143.968 133.72C143.776 133.72 143.597 133.693 143.432 133.64C143.272 133.592 143.13 133.525 143.008 133.44L143.216 132.776C143.317 132.861 143.424 132.925 143.536 132.968C143.653 133.011 143.778 133.032 143.912 133.032C144.056 133.032 144.184 132.992 144.296 132.912C144.413 132.837 144.517 132.685 144.608 132.456L144.784 132.024L144.36 131.032L143.112 128H144.072L144.96 130.512L145.192 131.264L145.456 130.44L146.296 128H147.184ZM151.856 132.08C151.526 132.08 151.224 131.997 150.952 131.832C150.686 131.667 150.475 131.429 150.32 131.12C150.166 130.811 150.088 130.44 150.088 130.008C150.088 129.56 150.171 129.181 150.336 128.872C150.502 128.563 150.723 128.328 151 128.168C151.278 128.003 151.582 127.92 151.912 127.92C152.254 127.92 152.542 128.013 152.776 128.2C153.011 128.387 153.168 128.629 153.248 128.928L153.152 129.016V126.2H154.008V132H153.248L153.184 130.912L153.296 130.92C153.259 131.16 153.171 131.368 153.032 131.544C152.894 131.715 152.72 131.848 152.512 131.944C152.31 132.035 152.091 132.08 151.856 132.08ZM152.04 131.392C152.27 131.392 152.467 131.333 152.632 131.216C152.798 131.099 152.926 130.933 153.016 130.72C153.107 130.507 153.152 130.251 153.152 129.952C153.152 129.675 153.107 129.437 153.016 129.24C152.926 129.037 152.798 128.883 152.632 128.776C152.472 128.669 152.286 128.616 152.072 128.616C151.715 128.616 151.438 128.739 151.24 128.984C151.043 129.229 150.944 129.568 150.944 130C150.944 130.432 151.04 130.773 151.232 131.024C151.424 131.269 151.694 131.392 152.04 131.392ZM157.648 129.432C157.648 129.165 157.573 128.96 157.424 128.816C157.28 128.667 157.08 128.592 156.824 128.592C156.584 128.592 156.379 128.648 156.208 128.76C156.037 128.872 155.912 129.053 155.832 129.304L155.112 129C155.213 128.675 155.411 128.413 155.704 128.216C156.003 128.019 156.387 127.92 156.856 127.92C157.176 127.92 157.459 127.973 157.704 128.08C157.949 128.181 158.141 128.336 158.28 128.544C158.424 128.752 158.496 129.019 158.496 129.344V131.128C158.496 131.325 158.595 131.424 158.792 131.424C158.888 131.424 158.981 131.411 159.072 131.384L159.024 131.976C158.901 132.035 158.747 132.064 158.56 132.064C158.389 132.064 158.235 132.035 158.096 131.976C157.963 131.912 157.856 131.819 157.776 131.696C157.701 131.568 157.664 131.411 157.664 131.224V131.168L157.84 131.16C157.792 131.368 157.693 131.541 157.544 131.68C157.395 131.813 157.221 131.915 157.024 131.984C156.827 132.048 156.627 132.08 156.424 132.08C156.173 132.08 155.947 132.04 155.744 131.96C155.547 131.88 155.389 131.76 155.272 131.6C155.16 131.435 155.104 131.232 155.104 130.992C155.104 130.693 155.2 130.448 155.392 130.256C155.589 130.064 155.867 129.933 156.224 129.864L157.776 129.56L157.768 130.16L156.64 130.392C156.416 130.435 156.248 130.496 156.136 130.576C156.024 130.656 155.968 130.773 155.968 130.928C155.968 131.077 156.024 131.197 156.136 131.288C156.253 131.373 156.408 131.416 156.6 131.416C156.733 131.416 156.861 131.4 156.984 131.368C157.112 131.336 157.227 131.285 157.328 131.216C157.429 131.141 157.507 131.048 157.56 130.936C157.619 130.819 157.648 130.68 157.648 130.52V129.432ZM160.91 126.824V130.8C160.91 130.997 160.961 131.141 161.062 131.232C161.169 131.323 161.31 131.368 161.486 131.368C161.63 131.368 161.755 131.347 161.862 131.304C161.969 131.256 162.067 131.192 162.158 131.112L162.35 131.736C162.227 131.843 162.075 131.928 161.894 131.992C161.718 132.051 161.521 132.08 161.302 132.08C161.073 132.08 160.862 132.043 160.67 131.968C160.478 131.893 160.329 131.773 160.222 131.608C160.115 131.437 160.059 131.216 160.054 130.944V127.064L160.91 126.824ZM162.286 128V128.672H159.286V128H162.286ZM164.893 132.08C164.493 132.08 164.141 131.997 163.837 131.832C163.533 131.667 163.295 131.429 163.125 131.12C162.959 130.805 162.877 130.432 162.877 130C162.877 129.568 162.959 129.197 163.125 128.888C163.295 128.573 163.53 128.333 163.829 128.168C164.127 128.003 164.466 127.92 164.845 127.92C165.234 127.92 165.565 128 165.837 128.16C166.109 128.32 166.317 128.539 166.461 128.816C166.605 129.093 166.677 129.408 166.677 129.76C166.677 129.856 166.674 129.947 166.669 130.032C166.663 130.117 166.655 130.192 166.645 130.256H163.429V129.6H166.269L165.845 129.728C165.845 129.365 165.754 129.088 165.573 128.896C165.391 128.699 165.143 128.6 164.829 128.6C164.599 128.6 164.399 128.653 164.229 128.76C164.058 128.867 163.927 129.027 163.837 129.24C163.746 129.448 163.701 129.704 163.701 130.008C163.701 130.307 163.749 130.56 163.845 130.768C163.941 130.976 164.077 131.133 164.253 131.24C164.429 131.347 164.637 131.4 164.877 131.4C165.143 131.4 165.359 131.349 165.525 131.248C165.69 131.147 165.821 131.005 165.917 130.824L166.597 131.144C166.501 131.336 166.37 131.504 166.205 131.648C166.045 131.787 165.853 131.893 165.629 131.968C165.405 132.043 165.159 132.08 164.893 132.08Z" fill="white"/>
<path d="M125.799 147.09C125.127 147.09 124.59 146.829 124.188 146.307C123.786 145.785 123.585 145.026 123.585 144.03C123.585 143.034 123.786 142.275 124.188 141.753C124.59 141.231 125.127 140.97 125.799 140.97C126.477 140.97 127.014 141.231 127.41 141.753C127.812 142.275 128.013 143.034 128.013 144.03C128.013 145.026 127.812 145.785 127.41 146.307C127.014 146.829 126.477 147.09 125.799 147.09ZM125.799 146.442C126.117 146.442 126.384 146.352 126.6 146.172C126.822 145.986 126.987 145.713 127.095 145.353C127.209 144.993 127.266 144.552 127.266 144.03C127.266 143.508 127.209 143.067 127.095 142.707C126.987 142.347 126.822 142.077 126.6 141.897C126.384 141.711 126.117 141.618 125.799 141.618C125.481 141.618 125.211 141.711 124.989 141.897C124.773 142.077 124.608 142.347 124.494 142.707C124.386 143.067 124.332 143.508 124.332 144.03C124.332 144.552 124.386 144.993 124.494 145.353C124.608 145.713 124.773 145.986 124.989 146.172C125.211 146.352 125.481 146.442 125.799 146.442ZM131.398 147.09C130.726 147.09 130.189 146.829 129.787 146.307C129.385 145.785 129.184 145.026 129.184 144.03C129.184 143.034 129.385 142.275 129.787 141.753C130.189 141.231 130.726 140.97 131.398 140.97C132.076 140.97 132.613 141.231 133.009 141.753C133.411 142.275 133.612 143.034 133.612 144.03C133.612 145.026 133.411 145.785 133.009 146.307C132.613 146.829 132.076 147.09 131.398 147.09ZM131.398 146.442C131.716 146.442 131.983 146.352 132.199 146.172C132.421 145.986 132.586 145.713 132.694 145.353C132.808 144.993 132.865 144.552 132.865 144.03C132.865 143.508 132.808 143.067 132.694 142.707C132.586 142.347 132.421 142.077 132.199 141.897C131.983 141.711 131.716 141.618 131.398 141.618C131.08 141.618 130.81 141.711 130.588 141.897C130.372 142.077 130.207 142.347 130.093 142.707C129.985 143.067 129.931 143.508 129.931 144.03C129.931 144.552 129.985 144.993 130.093 145.353C130.207 145.713 130.372 145.986 130.588 146.172C130.81 146.352 131.08 146.442 131.398 146.442ZM137.764 140.43L135.01 147.63H134.335L137.089 140.43H137.764ZM140.688 147.09C140.016 147.09 139.479 146.829 139.077 146.307C138.675 145.785 138.474 145.026 138.474 144.03C138.474 143.034 138.675 142.275 139.077 141.753C139.479 141.231 140.016 140.97 140.688 140.97C141.366 140.97 141.903 141.231 142.299 141.753C142.701 142.275 142.902 143.034 142.902 144.03C142.902 145.026 142.701 145.785 142.299 146.307C141.903 146.829 141.366 147.09 140.688 147.09ZM140.688 146.442C141.006 146.442 141.273 146.352 141.489 146.172C141.711 145.986 141.876 145.713 141.984 145.353C142.098 144.993 142.155 144.552 142.155 144.03C142.155 143.508 142.098 143.067 141.984 142.707C141.876 142.347 141.711 142.077 141.489 141.897C141.273 141.711 141.006 141.618 140.688 141.618C140.37 141.618 140.1 141.711 139.878 141.897C139.662 142.077 139.497 142.347 139.383 142.707C139.275 143.067 139.221 143.508 139.221 144.03C139.221 144.552 139.275 144.993 139.383 145.353C139.497 145.713 139.662 145.986 139.878 146.172C140.1 146.352 140.37 146.442 140.688 146.442ZM146.286 147.09C145.614 147.09 145.077 146.829 144.675 146.307C144.273 145.785 144.072 145.026 144.072 144.03C144.072 143.034 144.273 142.275 144.675 141.753C145.077 141.231 145.614 140.97 146.286 140.97C146.964 140.97 147.501 141.231 147.897 141.753C148.299 142.275 148.5 143.034 148.5 144.03C148.5 145.026 148.299 145.785 147.897 146.307C147.501 146.829 146.964 147.09 146.286 147.09ZM146.286 146.442C146.604 146.442 146.871 146.352 147.087 146.172C147.309 145.986 147.474 145.713 147.582 145.353C147.696 144.993 147.753 144.552 147.753 144.03C147.753 143.508 147.696 143.067 147.582 142.707C147.474 142.347 147.309 142.077 147.087 141.897C146.871 141.711 146.604 141.618 146.286 141.618C145.968 141.618 145.698 141.711 145.476 141.897C145.26 142.077 145.095 142.347 144.981 142.707C144.873 143.067 144.819 143.508 144.819 144.03C144.819 144.552 144.873 144.993 144.981 145.353C145.095 145.713 145.26 145.986 145.476 146.172C145.698 146.352 145.968 146.442 146.286 146.442Z" fill="white"/>
</svg>
