<svg width="16" height="16" viewBox="0 0 16 16" fill="none" xmlns="http://www.w3.org/2000/svg">
<path d="M0 14.4H16V16H0V14.4ZM1.6 8H3.2V13.6H1.6V8ZM5.6 8H7.2V13.6H5.6V8ZM8.8 8H10.4V13.6H8.8V8ZM12.8 8H14.4V13.6H12.8V8ZM0 4L8 0L16 4V7.2H0V4ZM8 4.8C8.21217 4.8 8.41566 4.71571 8.56569 4.56569C8.71571 4.41566 8.8 4.21217 8.8 4C8.8 3.78783 8.71571 3.58434 8.56569 3.43431C8.41566 3.28429 8.21217 3.2 8 3.2C7.78783 3.2 7.58434 3.28429 7.43431 3.43431C7.28429 3.58434 7.2 3.78783 7.2 4C7.2 4.21217 7.28429 4.41566 7.43431 4.56569C7.58434 4.71571 7.78783 4.8 8 4.8Z" fill="#3A3A3A"/>
</svg>
