<svg width="28" height="18" viewBox="0 0 28 18" fill="none" xmlns="http://www.w3.org/2000/svg">
<path d="M17.786 1.89941H10.2158V15.4854H17.786V1.89941Z" fill="#FF5F00"/>
<path d="M10.6964 8.69406C10.6964 6.05367 11.9221 3.53329 13.9889 1.90105C10.2398 -1.05138 4.80848 -0.403288 1.8525 3.36527C-1.10349 7.10983 -0.454615 12.5346 3.31847 15.4871C6.46672 17.9594 10.8646 17.9594 14.0129 15.4871C11.9221 13.8548 10.6964 11.3345 10.6964 8.69406Z" fill="#EB001B"/>
<path d="M28 8.69406C28 13.4708 24.1308 17.3353 19.3484 17.3353C17.4018 17.3353 15.5272 16.6872 14.0132 15.4871C17.7622 12.5346 18.4111 7.10983 15.4551 3.34127C15.0225 2.81319 14.5419 2.30911 14.0132 1.90105C17.7622 -1.05138 23.2176 -0.403288 26.1495 3.36527C27.3512 4.87749 28 6.74977 28 8.69406Z" fill="#F79E1B"/>
<path d="M27.1829 14.046V13.758H27.303V13.71H27.0146V13.758H27.1348V14.046H27.1829ZM27.7356 14.046V13.71H27.6395L27.5434 13.95L27.4472 13.71H27.3511V14.046H27.4232V13.782L27.5193 13.998H27.5914L27.6876 13.782V14.046H27.7356Z" fill="#F79E1B"/>
</svg>
