<svg width="16" height="16" viewBox="0 0 16 16" fill="none" xmlns="http://www.w3.org/2000/svg">
<circle cx="8" cy="8" r="7.5" fill="white" stroke="#868686"/>
<path fill-rule="evenodd" clip-rule="evenodd" d="M8.5542 4.50066C8.55466 4.22452 8.33117 4.00037 8.05503 4C7.77888 3.99963 7.55466 4.22319 7.5542 4.49934L7.54911 7.57813H4.5C4.22386 7.57813 4 7.80198 4 8.07813C4 8.35427 4.22386 8.57813 4.5 8.57813H7.54746L7.54237 11.657C7.54191 11.9331 7.7654 12.1573 8.04154 12.1576C8.31768 12.158 8.54191 11.9344 8.54237 11.6583L8.54746 8.57813H11.5962C11.8724 8.57813 12.0962 8.35427 12.0962 8.07813C12.0962 7.80198 11.8724 7.57813 11.5962 7.57813H8.54911L8.5542 4.50066Z" fill="#868686"/>
</svg>
