<svg width="28" height="10" viewBox="0 0 28 10" fill="none" xmlns="http://www.w3.org/2000/svg">
<path d="M18.2432 0.5C16.2577 0.5 14.475 1.52706 14.475 3.41176C14.475 5.58235 17.6241 5.73059 17.6241 6.81059C17.6241 7.26588 17.0904 7.67882 16.1937 7.67882C14.9127 7.67882 13.952 7.10706 13.952 7.10706L13.5463 9.01294C13.5463 9.01294 14.6458 9.5 16.1189 9.5C18.2966 9.5 20.0046 8.43059 20.0046 6.50353C20.0046 4.21647 16.8448 4.06824 16.8448 3.06235C16.8448 2.70235 17.2825 2.31059 18.1792 2.31059C19.1933 2.31059 20.0259 2.72353 20.0259 2.72353L20.4316 0.881176C20.4209 0.881176 19.5135 0.5 18.2432 0.5ZM0.053374 0.637647L0 0.912941C0 0.912941 0.832634 1.06118 1.59055 1.36824C2.56195 1.71765 2.626 1.91882 2.7968 2.54353L4.57949 9.35176H6.97064L10.6321 0.637647H8.25162L5.89249 6.56706L4.93176 1.53765C4.84636 0.965882 4.39802 0.637647 3.84293 0.637647H0.053374ZM11.5928 0.637647L9.72474 9.35176H11.9985L13.8559 0.637647H11.5928ZM24.2531 0.637647C23.7087 0.637647 23.4205 0.923529 23.207 1.43176L19.8765 9.35176H22.257L22.716 8.02824H25.6195L25.8971 9.35176H28L26.1746 0.637647H24.2531ZM24.5627 2.99882L25.2673 6.27059H23.3778L24.5627 2.99882Z" fill="white"/>
</svg>
